<svg width="32" height="33" viewBox="0 0 32 33" fill="none" xmlns="http://www.w3.org/2000/svg">
<g clip-path="url(#clip0_232_702)">
<mask id="mask0_232_702" style="mask-type:luminance" maskUnits="userSpaceOnUse" x="0" y="0" width="32" height="33">
<path d="M0 0H32V32.6667H0V0Z" fill="white"/>
</mask>
<g mask="url(#mask0_232_702)">
<path fill-rule="evenodd" clip-rule="evenodd" d="M16 0C7.16 0 0 7.30917 0 16.3333C0 23.5608 4.58 29.6654 10.94 31.8296C11.74 31.9725 12.04 31.4825 12.04 31.0538C12.04 30.6658 12.02 29.3796 12.02 28.0117C8 28.7671 6.96 27.0113 6.64 26.0925C6.46 25.6229 5.68 24.1733 5 23.7854C4.44 23.4792 3.64 22.7238 4.98 22.7033C6.24 22.6829 7.14 23.8875 7.44 24.3775C8.88 26.8479 11.18 26.1538 12.1 25.725C12.24 24.6633 12.66 23.9488 13.12 23.5404C9.56 23.1321 5.84 21.7233 5.84 15.4758C5.84 13.6996 6.46 12.2296 7.48 11.0863C7.32 10.6779 6.76 9.00375 7.64 6.75792C7.64 6.75792 8.98 6.32917 12.04 8.43208C13.32 8.06458 14.68 7.88083 16.04 7.88083C17.4 7.88083 18.76 8.06458 20.04 8.43208C23.1 6.30875 24.44 6.75792 24.44 6.75792C25.32 9.00375 24.76 10.6779 24.6 11.0863C25.62 12.2296 26.24 13.6792 26.24 15.4758C26.24 21.7438 22.5 23.1321 18.94 23.5404C19.52 24.0508 20.02 25.0308 20.02 26.5621C20.02 28.7467 20 30.5025 20 31.0538C20 31.4825 20.3 31.9929 21.1 31.8296C24.2762 30.7349 27.0362 28.651 28.9916 25.8711C30.9469 23.0913 31.999 19.7556 32 16.3333C32 7.30917 24.84 0 16 0Z" fill="black"/>
</g>
</g>
<defs>
<clipPath id="clip0_232_702">
<rect width="32" height="32.6667" fill="white"/>
</clipPath>
</defs>
</svg>
