<svg width="32" height="33" viewBox="0 0 32 33" fill="none" xmlns="http://www.w3.org/2000/svg">
<path d="M24.5 0.539429H7.5C3.35786 0.539429 0 3.89729 0 8.03943V25.0394C0 29.1816 3.35786 32.5394 7.5 32.5394H24.5C28.6421 32.5394 32 29.1816 32 25.0394V8.03943C32 3.89729 28.6421 0.539429 24.5 0.539429Z" fill="url(#paint0_linear_232_955)"/>
<g filter="url(#filter0_d_232_955)">
<path d="M16.4963 25.059C20.2058 25.059 22.4411 23.2426 22.4411 20.2469C22.4411 17.9822 20.8463 16.3429 18.4779 16.0832V15.989C20.2179 15.7059 21.5833 14.09 21.5833 12.2855C21.5833 9.71424 19.5534 8.03937 16.46 8.03937H9.5V25.059H16.4963ZM12.2066 10.1977H15.8075C17.765 10.1977 18.8766 11.0706 18.8766 12.6511C18.8766 14.3377 17.5838 15.2812 15.2396 15.2812H12.2066V10.1977ZM12.2066 22.9006V17.2982H15.7833C18.345 17.2982 19.6741 18.2417 19.6741 20.0817C19.6741 21.9216 18.3813 22.9006 15.9404 22.9006H12.2066Z" fill="url(#paint1_linear_232_955)"/>
<path d="M16.4963 25.059C20.2058 25.059 22.4411 23.2426 22.4411 20.2469C22.4411 17.9822 20.8463 16.3429 18.4779 16.0832V15.989C20.2179 15.7059 21.5833 14.09 21.5833 12.2855C21.5833 9.71424 19.5534 8.03937 16.46 8.03937H9.5V25.059H16.4963ZM12.2066 10.1977H15.8075C17.765 10.1977 18.8766 11.0706 18.8766 12.6511C18.8766 14.3377 17.5838 15.2812 15.2396 15.2812H12.2066V10.1977ZM12.2066 22.9006V17.2982H15.7833C18.345 17.2982 19.6741 18.2417 19.6741 20.0817C19.6741 21.9216 18.3813 22.9006 15.9404 22.9006H12.2066Z" stroke="white" stroke-width="0.125"/>
</g>
<defs>
<filter id="filter0_d_232_955" x="8.4375" y="7.22687" width="15.0662" height="19.1447" filterUnits="userSpaceOnUse" color-interpolation-filters="sRGB">
<feFlood flood-opacity="0" result="BackgroundImageFix"/>
<feColorMatrix in="SourceAlpha" type="matrix" values="0 0 0 0 0 0 0 0 0 0 0 0 0 0 0 0 0 0 127 0" result="hardAlpha"/>
<feOffset dy="0.25"/>
<feGaussianBlur stdDeviation="0.5"/>
<feColorMatrix type="matrix" values="0 0 0 0 0 0 0 0 0 0 0 0 0 0 0 0 0 0 0.15 0"/>
<feBlend mode="normal" in2="BackgroundImageFix" result="effect1_dropShadow_232_955"/>
<feBlend mode="normal" in="SourceGraphic" in2="effect1_dropShadow_232_955" result="shape"/>
</filter>
<linearGradient id="paint0_linear_232_955" x1="0" y1="0.539429" x2="32" y2="32.5394" gradientUnits="userSpaceOnUse">
<stop stop-color="#9013FE"/>
<stop offset="1" stop-color="#6B11F4"/>
</linearGradient>
<linearGradient id="paint1_linear_232_955" x1="10.7241" y1="9.15962" x2="18.5676" y2="22.4249" gradientUnits="userSpaceOnUse">
<stop stop-color="white"/>
<stop offset="1" stop-color="#F1E5FC"/>
</linearGradient>
</defs>
</svg>
