<svg width="32" height="33" viewBox="0 0 32 33" fill="none" xmlns="http://www.w3.org/2000/svg">
<path d="M29 0.765621H3C2.41008 0.759492 1.84187 0.992512 1.42005 1.41355C0.998227 1.83459 0.757253 2.40926 0.75 3.01145V29.6603C0.758564 30.2616 1.00012 30.835 1.42179 31.2549C1.84347 31.6749 2.41093 31.9072 3 31.901H29C29.59 31.9058 30.1578 31.672 30.5794 31.2507C31.001 30.8294 31.2421 30.2549 31.25 29.6527V3.0038C31.2395 2.40337 30.9972 1.83144 30.5759 1.41233C30.1546 0.993227 29.5883 0.760817 29 0.765621Z" fill="#0076B2"/>
<path d="M5.26503 12.4363H9.79253V27.3073H5.26503V12.4363ZM7.53003 5.03528C8.04931 5.03528 8.55693 5.1925 8.98866 5.48706C9.42039 5.78163 9.75685 6.20029 9.95545 6.69008C10.1541 7.17988 10.2059 7.71881 10.1044 8.23869C10.0029 8.75856 9.75266 9.23603 9.3853 9.61069C9.01794 9.98535 8.54997 10.2404 8.04061 10.3435C7.53124 10.4466 7.00337 10.3932 6.52375 10.1899C6.04414 9.98673 5.63434 9.64287 5.34621 9.20186C5.05807 8.76085 4.90454 8.24251 4.90503 7.71241C4.90569 7.00216 5.18255 6.32123 5.67476 5.81924C6.16697 5.31725 6.83427 5.03528 7.53003 5.03528ZM12.6325 12.4363H16.9725V14.478H17.0325C17.6375 13.3091 19.1125 12.0765 21.315 12.0765C25.9 12.0663 26.75 15.1466 26.75 19.1406V27.3073H22.2225V20.0722C22.2225 18.3495 22.1925 16.1317 19.87 16.1317C17.5475 16.1317 17.1525 18.0101 17.1525 19.9599V27.3073H12.6325V12.4363Z" fill="white"/>
</svg>
