<svg width="200" height="200" viewBox="0 0 200 200" fill="none" xmlns="http://www.w3.org/2000/svg">
<path d="M153.125 0H46.875C20.9867 0 0 20.9867 0 46.875V153.125C0 179.013 20.9867 200 46.875 200H153.125C179.013 200 200 179.013 200 153.125V46.875C200 20.9867 179.013 0 153.125 0Z" fill="#242938"/>
<path d="M178.125 142.92C175.851 143.782 173.339 143.78 171.066 142.916C168.793 142.051 166.915 140.384 165.788 138.228C158.708 127.629 150.889 117.508 143.374 107.17L140.116 102.826C131.167 114.815 122.219 126.326 114.052 138.272C112.989 140.332 111.213 141.934 109.055 142.782C106.897 143.629 104.505 143.663 102.324 142.877L135.902 97.8308L104.67 57.1277C106.918 56.3159 109.377 56.3048 111.633 57.0962C113.888 57.8876 115.802 59.4329 117.05 61.4714C124.304 72.0714 132.341 82.1925 140.333 92.9222C148.37 82.2792 156.319 72.1144 163.747 61.6019C164.816 59.5755 166.593 58.0131 168.74 57.2121C170.887 56.4111 173.253 56.4275 175.388 57.2581L163.269 73.3308C157.839 80.498 152.496 87.7089 146.849 94.7027C146.394 95.1101 146.03 95.6089 145.781 96.1666C145.532 96.7242 145.403 97.3282 145.403 97.939C145.403 98.5498 145.532 99.1538 145.781 99.7114C146.03 100.269 146.394 100.768 146.849 101.175C157.231 114.946 167.526 128.759 178.125 142.92ZM21.875 97.2659C22.7875 92.9222 23.3516 88.187 24.6117 83.7566C32.1266 57.0417 62.7508 45.9206 83.8188 62.4714C96.1555 72.1589 99.2398 85.8855 98.632 101.35H29.1297C28 128.977 47.9383 145.657 73.4367 137.143C77.5731 135.664 81.2759 133.177 84.2108 129.909C87.1458 126.64 89.2205 122.692 90.2477 118.421C91.5945 114.077 93.7664 113.339 97.893 114.598C97.2132 119.886 95.3434 124.952 92.4243 129.413C89.5051 133.875 85.6125 137.617 81.0391 140.357C73.4826 144.49 64.8127 146.128 56.2694 145.036C47.7261 143.943 39.747 140.177 33.4734 134.276C27.2668 127.297 23.5139 118.479 22.7875 109.168C22.7875 107.692 22.2227 106.214 21.9187 104.825C21.89 102.305 21.8754 99.7855 21.875 97.2659ZM29.2164 95.398H92.0727C91.6812 75.373 79.0406 61.1683 62.1867 61.0386C43.4211 60.7777 29.9984 74.6777 29.1727 95.3113L29.2164 95.398Z" fill="white"/>
</svg>
