<svg width="32" height="31" viewBox="0 0 32 31" fill="none" xmlns="http://www.w3.org/2000/svg">
<path d="M24.5 -1H7.5C3.35786 -1 0 2.35786 0 6.5V23.5C0 27.6421 3.35786 31 7.5 31H24.5C28.6421 31 32 27.6421 32 23.5V6.5C32 2.35786 28.6421 -1 24.5 -1Z" fill="#E14E1D"/>
<path d="M6 3.75L7.07625 15.8241H20.915L20.4506 21.0029L15.9949 22.2076L11.5475 21.0046L11.2501 17.6794H7.2425L7.81563 24.0895L15.994 26.361L24.1828 24.0895L25.2806 11.8319H10.728L10.3626 7.74312H25.6424L26 3.75H6Z" fill="white"/>
<path d="M16 3.75H6L7.07625 15.8241H16V11.8319H10.728L10.3626 7.74312H16V3.75ZM16 22.2059L15.9949 22.2076L11.5475 21.0046L11.2501 17.6794H7.2425L7.81563 24.0895L15.994 26.361L16.0001 26.3592L16 22.2059Z" fill="#EBEBEB"/>
</svg>
