<svg width="32" height="25" viewBox="0 0 32 25" fill="none" xmlns="http://www.w3.org/2000/svg">
<g clip-path="url(#clip0_232_676)">
<path d="M7.27275 24.6696V11.9642L3.43837 8.35943L0 6.35901V22.4275C0 23.6681 0.978125 24.6696 2.18187 24.6696H7.27275Z" fill="#4285F4"/>
<path d="M24.7273 24.6696H29.8182C31.0255 24.6696 32 23.6644 32 22.4275V6.35913L28.1055 8.65037L24.7273 11.9642V24.6696Z" fill="#34A853"/>
<path d="M7.27273 11.9642L6.75098 6.99987L7.27273 2.24847L16 8.97485L24.7272 2.24847L25.3109 6.74334L24.7272 11.9642L16 18.6906L7.27273 11.9642Z" fill="#EA4335"/>
<path d="M24.7273 2.24848V11.9642L32 6.35902V3.3695C32 0.59682 28.92 -0.98381 26.7638 0.67903L24.7273 2.24848Z" fill="#FBBC04"/>
<path d="M0 6.35902L3.34487 8.93709L7.27275 11.9642V2.24848L5.23625 0.679028C3.07625 -0.98394 0 0.596817 0 3.36937V6.35902Z" fill="#C5221F"/>
</g>
<defs>
<clipPath id="clip0_232_676">
<rect width="32" height="24.7917" fill="white"/>
</clipPath>
</defs>
</svg>
