<svg width="32" height="32" viewBox="0 0 32 32" fill="none" xmlns="http://www.w3.org/2000/svg">
<path d="M24.5 0H7.5C3.35786 0 0 3.35786 0 7.5V24.5C0 28.6421 3.35786 32 7.5 32H24.5C28.6421 32 32 28.6421 32 24.5V7.5C32 3.35786 28.6421 0 24.5 0Z" fill="#023430"/>
<path d="M21.3966 13.4489C20.0795 7.63875 17.3345 6.092 16.6342 4.99862C16.3453 4.51703 16.0895 4.01634 15.8686 3.5C15.8316 4.01625 15.7636 4.34125 15.3249 4.73275C14.444 5.51813 10.7027 8.56687 10.3879 15.1685C10.0945 21.3237 14.9129 25.1191 15.5494 25.5115C16.0389 25.7524 16.635 25.5166 16.9259 25.2955C19.2485 23.7015 22.422 19.4517 21.3991 13.4489" fill="#10AA50"/>
<path d="M16.0681 22.2339C15.9469 23.7574 15.86 24.6426 15.552 25.5133C15.552 25.5133 15.7541 26.9636 15.8961 28.5H16.3985C16.5185 27.4181 16.7015 26.3441 16.9465 25.2835C16.2961 24.9635 16.0931 23.5708 16.0681 22.2339Z" fill="#B8C4C2"/>
<path d="M16.9456 25.2844C16.2884 24.9807 16.0982 23.5586 16.069 22.2339C16.2314 20.0485 16.2788 17.8561 16.211 15.6657C16.1765 14.5165 16.2272 5.02099 15.9279 3.63074C16.1325 4.10166 16.3685 4.55835 16.6342 4.99774C17.3345 6.09199 20.0804 7.63874 21.3966 13.4489C22.422 19.4415 19.2657 23.68 16.9456 25.2844Z" fill="#12924F"/>
</svg>
