<svg width="32" height="20" viewBox="0 0 32 20" fill="none" xmlns="http://www.w3.org/2000/svg">
<path d="M15.8264 19.9423C15.7179 19.9423 15.6166 19.9129 15.5226 19.8613L14.5606 19.2798C14.4159 19.1988 14.4882 19.1694 14.5317 19.1546C14.7269 19.0884 14.7631 19.0736 14.9656 18.9559C14.9874 18.9411 15.0163 18.9485 15.038 18.9632L15.7758 19.4123C15.8047 19.427 15.8409 19.427 15.8625 19.4123L18.7486 17.7118C18.7776 17.6971 18.7921 17.6676 18.7921 17.6308V14.2372C18.7921 14.2003 18.7776 14.1709 18.7486 14.1562L15.8625 12.463C15.8336 12.4483 15.7975 12.4483 15.7758 12.463L12.8897 14.1562C12.8608 14.1709 12.8463 14.2077 12.8463 14.2371V17.6308C12.8463 17.6602 12.8608 17.697 12.8897 17.7118L13.6781 18.1755C14.1049 18.3964 14.3725 18.1387 14.3725 17.8811V14.5316C14.3725 14.4874 14.4087 14.4432 14.4593 14.4432H14.8282C14.8716 14.4432 14.915 14.4801 14.915 14.5316V17.8811C14.915 18.4626 14.604 18.8013 14.0615 18.8013C13.8951 18.8013 13.765 18.8013 13.396 18.6172L12.6366 18.1755C12.4485 18.0651 12.3328 17.859 12.3328 17.6381V14.2445C12.3328 14.0237 12.4485 13.8175 12.6366 13.7071L15.5226 12.0066C15.7035 11.9036 15.9494 11.9036 16.1302 12.0066L19.0162 13.7071C19.2043 13.8175 19.3201 14.0237 19.3201 14.2445V17.6381C19.3201 17.859 19.2043 18.0651 19.0162 18.1755L16.1302 19.876C16.0362 19.9202 15.9276 19.9423 15.8264 19.9423ZM16.7161 17.6087C15.4504 17.6087 15.1899 17.0198 15.1899 16.5192C15.1899 16.475 15.2261 16.4309 15.2767 16.4309H15.6529C15.6963 16.4309 15.7324 16.4603 15.7324 16.5045C15.7903 16.8946 15.9567 17.086 16.7234 17.086C17.331 17.086 17.5914 16.9462 17.5914 16.6149C17.5914 16.4235 17.519 16.2837 16.5715 16.188C15.7831 16.1069 15.2912 15.9303 15.2912 15.2899C15.2912 14.6936 15.7831 14.3402 16.6077 14.3402C17.5335 14.3402 17.9892 14.6641 18.0471 15.3708C18.0471 15.3929 18.0399 15.415 18.0254 15.4371C18.0109 15.4518 17.9892 15.4665 17.9675 15.4665H17.5914C17.5552 15.4665 17.519 15.4371 17.5118 15.4002C17.425 14.9954 17.2008 14.8629 16.6077 14.8629C15.9422 14.8629 15.8626 15.0985 15.8626 15.2751C15.8626 15.4886 15.9567 15.5548 16.8536 15.6726C17.7433 15.7904 18.1628 15.9597 18.1628 16.5928C18.1556 17.2406 17.6348 17.6087 16.7161 17.6087Z" fill="#539E43"/>
<path d="M6.87161 6.66957C6.87161 6.53709 6.79926 6.41186 6.68355 6.34562L3.61665 4.54944C3.56595 4.51995 3.50812 4.50524 3.45029 4.49785H3.42132C3.36349 4.49785 3.3056 4.51995 3.25497 4.54944L0.188067 6.34562C0.0722853 6.41186 0 6.53702 0 6.66957L0.00725983 11.4987C0.00725983 11.5649 0.0434338 11.6312 0.101262 11.6607C0.159153 11.6975 0.231438 11.6975 0.282132 11.6607L2.10491 10.6006C2.22063 10.5343 2.29298 10.4092 2.29298 10.2767V8.0167C2.29298 7.88422 2.36526 7.75906 2.48105 7.69282L3.25497 7.23639C3.31286 7.19957 3.37795 7.18479 3.44303 7.18479C3.50812 7.18479 3.57321 7.19957 3.6239 7.23639L4.39783 7.69282C4.51361 7.75906 4.58589 7.88416 4.58589 8.0167V10.2767C4.58589 10.4092 4.65824 10.5343 4.77396 10.6006L6.59674 11.6607C6.6249 11.6787 6.6575 11.6883 6.69077 11.6883C6.72405 11.6883 6.75665 11.6787 6.78481 11.6607C6.8427 11.6312 6.87887 11.5649 6.87887 11.4987L6.87161 6.66957ZM21.613 0.0221178C21.5552 -0.00737261 21.4828 -0.00737261 21.4321 0.0221178C21.3743 0.0589331 21.3381 0.117787 21.3381 0.184029V4.96906C21.3381 5.0132 21.3165 5.05734 21.273 5.08683C21.2297 5.10887 21.1863 5.10887 21.1429 5.08683L20.3761 4.63779C20.3199 4.60523 20.2564 4.58811 20.1917 4.58811C20.127 4.58811 20.0634 4.60523 20.0072 4.63779L16.9403 6.44135C16.8246 6.5076 16.7522 6.63275 16.7522 6.76524V10.365C16.7522 10.4975 16.8246 10.6227 16.9403 10.6889L20.0072 12.4925C20.0634 12.5251 20.127 12.5422 20.1917 12.5422C20.2564 12.5422 20.3199 12.5251 20.3761 12.4925L23.443 10.6889C23.5588 10.6227 23.6311 10.4975 23.6311 10.365V1.39135C23.6311 1.25148 23.5588 1.12639 23.443 1.06008L21.613 0.0221178ZM21.3309 9.17982C21.3309 9.21664 21.3165 9.24607 21.2875 9.26078L20.2387 9.87912C20.2241 9.88642 20.208 9.89021 20.1917 9.89021C20.1754 9.89021 20.1593 9.88642 20.1446 9.87912L19.0958 9.26078C19.0669 9.24607 19.0524 9.20925 19.0524 9.17982V7.94307C19.0524 7.90626 19.0669 7.87683 19.0958 7.86212L20.1446 7.24371C20.1593 7.23642 20.1754 7.23263 20.1917 7.23263C20.208 7.23263 20.2241 7.23642 20.2387 7.24371L21.2875 7.86212C21.3165 7.87677 21.3309 7.91365 21.3309 7.94307V9.17982ZM31.8191 7.91365C31.9349 7.8474 32 7.72225 32 7.5897V6.71371C32 6.58123 31.9277 6.45607 31.8191 6.38983L28.7739 4.59365C28.7177 4.56109 28.6542 4.54397 28.5895 4.54397C28.5248 4.54397 28.4612 4.56109 28.405 4.59365L25.3381 6.39715C25.2223 6.46339 25.15 6.58855 25.15 6.72104V10.3208C25.15 10.4533 25.2224 10.5785 25.3381 10.6447L28.3833 12.4115C28.4991 12.4777 28.6365 12.4777 28.745 12.4115L30.5895 11.3663C30.6474 11.3368 30.6835 11.2705 30.6835 11.2043C30.6835 11.138 30.6474 11.0718 30.5895 11.0423L27.5081 9.23874C27.4502 9.20193 27.414 9.14307 27.414 9.07683V7.95053C27.414 7.88428 27.4502 7.81804 27.5081 7.78855L28.4701 7.22906C28.4983 7.21102 28.5309 7.20144 28.5641 7.20144C28.5974 7.20144 28.63 7.21102 28.6582 7.22906L29.6202 7.78855C29.6781 7.82537 29.7142 7.88422 29.7142 7.95053V8.8339C29.7142 8.90014 29.7504 8.96638 29.8083 8.99581C29.8364 9.01386 29.869 9.02343 29.9023 9.02343C29.9356 9.02343 29.9682 9.01386 29.9964 8.99581L31.8191 7.91365Z" fill="#333333"/>
<path d="M28.5424 7.74432C28.5532 7.73712 28.5658 7.73328 28.5786 7.73328C28.5915 7.73328 28.6041 7.73712 28.6148 7.74432L29.2007 8.09031C29.2224 8.10509 29.2368 8.12712 29.2368 8.15655V8.84859C29.2368 8.87802 29.2224 8.90012 29.2007 8.91483L28.6148 9.26082C28.6041 9.26802 28.5915 9.27186 28.5786 9.27186C28.5658 9.27186 28.5532 9.26802 28.5424 9.26082L27.9566 8.91483C27.9349 8.90012 27.9204 8.87802 27.9204 8.84859V8.15661C27.9204 8.12712 27.9348 8.10502 27.9566 8.09037L28.5424 7.74432Z" fill="#539E43"/>
<path d="M12 4.60837C11.9437 4.57583 11.8802 4.55872 11.8155 4.55872C11.7509 4.55872 11.6873 4.57583 11.6311 4.60837L8.5859 6.3971C8.47012 6.46334 8.40503 6.5885 8.40503 6.72098V10.3061C8.40503 10.4386 8.47738 10.5637 8.5859 10.63L11.6311 12.4188C11.6873 12.4514 11.7509 12.4685 11.8155 12.4685C11.8802 12.4685 11.9437 12.4514 12 12.4188L15.0452 10.63C15.1609 10.5637 15.2261 10.4386 15.2261 10.3061V6.72105C15.2261 6.58856 15.1537 6.4634 15.0452 6.39716L12 4.60837Z" fill="url(#paint0_linear_232_771)"/>
<mask id="mask0_232_771" style="mask-type:luminance" maskUnits="userSpaceOnUse" x="8" y="4" width="8" height="9">
<path d="M12 4.60837C11.9437 4.57583 11.8802 4.55872 11.8155 4.55872C11.7509 4.55872 11.6873 4.57583 11.6311 4.60837L8.5859 6.3971C8.47012 6.46334 8.40503 6.5885 8.40503 6.72098V10.3061C8.40503 10.4386 8.47738 10.5637 8.5859 10.63L11.6311 12.4188C11.6873 12.4514 11.7509 12.4685 11.8155 12.4685C11.8802 12.4685 11.9437 12.4514 12 12.4188L15.0452 10.63C15.1609 10.5637 15.2261 10.4386 15.2261 10.3061V6.72105C15.2261 6.58856 15.1537 6.4634 15.0452 6.39716L12 4.60837Z" fill="white"/>
</mask>
<g mask="url(#mask0_232_771)">
<path d="M15.0523 6.39714L11.9926 4.60835C11.9626 4.59289 11.931 4.58055 11.8985 4.57153L8.46997 10.5491C8.49839 10.5844 8.53269 10.6143 8.5713 10.6375L11.6309 12.4263C11.7177 12.4778 11.819 12.4926 11.913 12.4631L15.1319 6.47083C15.1101 6.44141 15.0812 6.41918 15.0523 6.39714Z" fill="url(#paint1_linear_232_771)"/>
</g>
<mask id="mask1_232_771" style="mask-type:luminance" maskUnits="userSpaceOnUse" x="8" y="4" width="8" height="9">
<path d="M12 4.60837C11.9437 4.57583 11.8802 4.55872 11.8155 4.55872C11.7509 4.55872 11.6873 4.57583 11.6311 4.60837L8.5859 6.3971C8.47012 6.46334 8.40503 6.5885 8.40503 6.72098V10.3061C8.40503 10.4386 8.47738 10.5637 8.5859 10.63L11.6311 12.4188C11.6873 12.4514 11.7509 12.4685 11.8155 12.4685C11.8802 12.4685 11.9437 12.4514 12 12.4188L15.0452 10.63C15.1609 10.5637 15.2261 10.4386 15.2261 10.3061V6.72105C15.2261 6.58856 15.1537 6.4634 15.0452 6.39716L12 4.60837Z" fill="white"/>
</mask>
<g mask="url(#mask1_232_771)">
<path fill-rule="evenodd" clip-rule="evenodd" d="M15.0596 10.6301C15.1464 10.5785 15.2115 10.4902 15.2405 10.3945L11.8842 4.5642C11.7973 4.54948 11.7033 4.55681 11.6238 4.60834L8.58582 6.38986L11.8624 12.4704C11.9101 12.4625 11.9564 12.4477 11.9999 12.4263L15.0596 10.6301Z" fill="url(#paint2_linear_232_771)"/>
<path fill-rule="evenodd" clip-rule="evenodd" d="M15.0596 10.63L12.0072 12.4189C11.9641 12.4412 11.9176 12.4561 11.8698 12.463L11.9276 12.5735L15.3128 10.5786V10.5343L15.226 10.3871C15.2115 10.4901 15.1464 10.5785 15.0596 10.63Z" fill="url(#paint3_linear_232_771)"/>
<path fill-rule="evenodd" clip-rule="evenodd" d="M15.0596 10.63L12.0072 12.4189C11.9641 12.4412 11.9176 12.4561 11.8698 12.463L11.9276 12.5735L15.3128 10.5786V10.5343L15.226 10.3871C15.2115 10.4901 15.1464 10.5785 15.0596 10.63Z" fill="url(#paint4_linear_232_771)"/>
</g>
<defs>
<linearGradient id="paint0_linear_232_771" x1="473.518" y1="142.877" x2="131.329" y2="671.195" gradientUnits="userSpaceOnUse">
<stop stop-color="#41873F"/>
<stop offset="0.3288" stop-color="#418B3D"/>
<stop offset="0.6352" stop-color="#419637"/>
<stop offset="0.9319" stop-color="#3FA92D"/>
<stop offset="1" stop-color="#3FAE2A"/>
</linearGradient>
<linearGradient id="paint1_linear_232_771" x1="296.777" y1="440.769" x2="1139.35" y2="-9.02949" gradientUnits="userSpaceOnUse">
<stop offset="0.1376" stop-color="#41873F"/>
<stop offset="0.4032" stop-color="#54A044"/>
<stop offset="0.7136" stop-color="#66B848"/>
<stop offset="0.9081" stop-color="#6CC04A"/>
</linearGradient>
<linearGradient id="paint2_linear_232_771" x1="-20.6216" y1="400.181" x2="684.031" y2="400.181" gradientUnits="userSpaceOnUse">
<stop offset="0.09192" stop-color="#6CC04A"/>
<stop offset="0.2864" stop-color="#66B848"/>
<stop offset="0.5968" stop-color="#54A044"/>
<stop offset="0.8624" stop-color="#41873F"/>
</linearGradient>
<linearGradient id="paint3_linear_232_771" x1="-345.727" y1="120.307" x2="358.917" y2="120.307" gradientUnits="userSpaceOnUse">
<stop offset="0.09192" stop-color="#6CC04A"/>
<stop offset="0.2864" stop-color="#66B848"/>
<stop offset="0.5968" stop-color="#54A044"/>
<stop offset="0.8624" stop-color="#41873F"/>
</linearGradient>
<linearGradient id="paint4_linear_232_771" x1="461.575" y1="-451.088" x2="276.907" y2="499.709" gradientUnits="userSpaceOnUse">
<stop stop-color="#41873F"/>
<stop offset="0.3288" stop-color="#418B3D"/>
<stop offset="0.6352" stop-color="#419637"/>
<stop offset="0.9319" stop-color="#3FA92D"/>
<stop offset="1" stop-color="#3FAE2A"/>
</linearGradient>
</defs>
</svg>
