<svg width="32" height="30" viewBox="0 0 32 30" fill="none" xmlns="http://www.w3.org/2000/svg">
<path d="M26.3104 9.7236C25.9698 9.60052 25.6264 9.48646 25.2804 9.38154C25.3385 9.13129 25.392 8.88406 25.4395 8.64118C26.2193 4.65276 25.7095 1.43961 23.9684 0.381683C22.299 -0.632512 19.5689 0.425017 16.8116 2.95352C16.5399 3.20316 16.2742 3.45999 16.0147 3.72379C15.8411 3.54838 15.6643 3.37638 15.4846 3.20786C12.5949 0.504309 9.69837 -0.635146 7.95913 0.425807C6.29125 1.44316 5.79737 4.46375 6.49937 8.24367C6.56922 8.61803 6.64808 8.99046 6.73588 9.3606C6.32588 9.48336 5.93025 9.61402 5.55162 9.75311C2.16362 10.9978 0 12.9483 0 14.9716C0 17.0612 2.32275 19.1572 5.8515 20.4281C6.13759 20.5307 6.42605 20.6258 6.71663 20.7133C6.62229 21.1119 6.5385 21.5133 6.46537 21.9169C5.79612 25.6312 6.31875 28.5804 7.98212 29.5913C9.70012 30.6353 12.5836 29.5623 15.3912 26.9761C15.6189 26.7658 15.8416 26.5496 16.059 26.3277C16.3399 26.6133 16.6284 26.8906 16.924 27.1593C19.6437 29.6253 22.3298 30.621 23.9915 29.6074C25.7079 28.5604 26.2658 25.3921 25.5415 21.5375C25.4844 21.2355 25.4205 20.9351 25.3496 20.6363C25.5521 20.5731 25.7509 20.5081 25.9446 20.4404C29.6131 19.1597 32 17.0892 32 14.9716C32 12.941 29.7665 10.9773 26.3104 9.7236ZM25.5147 19.0732C25.3396 19.1341 25.1604 19.1932 24.9772 19.2503C24.5722 17.8993 24.0257 16.4629 23.3569 14.9786C23.9951 13.5297 24.5206 12.1116 24.9142 10.7694C25.2416 10.8693 25.5592 10.9745 25.8655 11.0855C28.8267 12.1598 30.633 13.7479 30.633 14.9716C30.633 16.275 28.6822 17.9672 25.5147 19.0732ZM24.2005 21.8173C24.5208 23.5217 24.5664 25.0627 24.3542 26.2675C24.1637 27.3501 23.7805 28.0717 23.3065 28.3608C22.2981 28.9759 20.1415 28.1764 17.8156 26.0674C17.5407 25.8176 17.2724 25.5598 17.011 25.2943C17.9128 24.2552 18.8139 23.0472 19.6934 21.7056C21.2404 21.561 22.7019 21.3244 24.0273 21.0016C24.0927 21.2792 24.1504 21.5511 24.2005 21.8173ZM10.9095 28.2545C9.92425 28.6211 9.1395 28.6316 8.66512 28.3434C7.65575 27.73 7.23612 25.362 7.8085 22.1856C7.87654 21.8102 7.95445 21.4369 8.04212 21.0661C9.35287 21.3717 10.8038 21.5914 12.3544 21.7239C13.2399 23.0367 14.167 24.2433 15.1014 25.2999C14.9028 25.5024 14.6995 25.6997 14.4917 25.8916C13.2501 27.0351 12.006 27.8465 10.9095 28.2545ZM6.29375 19.0651C4.73337 18.5031 3.44475 17.7728 2.5615 16.9758C1.76775 16.2596 1.36713 15.5485 1.36713 14.9716C1.36713 13.7438 3.10425 12.1777 6.00163 11.1133C6.35325 10.9842 6.72125 10.8624 7.10313 10.7481C7.50362 12.1205 8.02888 13.5555 8.66275 15.0066C8.02063 16.4792 7.48787 17.9371 7.0835 19.3258C6.81827 19.2457 6.55494 19.1588 6.29375 19.0651ZM7.841 7.96694C7.23962 4.7285 7.639 2.2856 8.64412 1.67248C9.71463 1.01944 12.0819 1.95052 14.577 4.28502C14.7397 4.43758 14.8998 4.59325 15.0571 4.75194C14.1274 5.80394 13.2087 7.00161 12.3311 8.30663C10.8261 8.45362 9.3855 8.68965 8.061 9.0059C7.97938 8.66163 7.90602 8.31511 7.841 7.96694ZM21.6444 11.5586C21.3315 10.9892 21.0071 10.427 20.6712 9.87231C21.6922 10.0084 22.6705 10.1889 23.5891 10.4097C23.3134 11.3412 22.9696 12.3149 22.565 13.3133C22.2692 12.722 21.9623 12.137 21.6444 11.5586ZM16.0154 5.78155C16.6459 6.50136 17.2774 7.30495 17.8985 8.17689C16.6385 8.11418 15.3764 8.11392 14.1164 8.1761C14.7381 7.31219 15.375 6.50966 16.0154 5.78155ZM10.3503 11.5684C10.0363 12.1421 9.73508 12.7235 9.44687 13.312C9.04887 12.3172 8.70825 11.3389 8.43013 10.3943C9.34313 10.1791 10.3168 10.0031 11.3313 9.86954C10.9917 10.4276 10.6646 10.9941 10.3503 11.5684ZM11.3604 20.176C10.3123 20.0527 9.324 19.8858 8.41125 19.6764C8.69375 18.7149 9.04187 17.7159 9.4485 16.6997C9.73785 17.2887 10.0403 17.8704 10.3556 18.4444C10.6799 19.0344 11.0156 19.6124 11.3604 20.176ZM16.0531 24.2631C15.4051 23.5265 14.7589 22.7116 14.1278 21.8352C14.7405 21.8605 15.3651 21.8734 16 21.8734C16.6523 21.8734 17.297 21.858 17.9316 21.8282C17.3085 22.7205 16.6794 23.5365 16.0531 24.2631ZM22.5779 16.6478C23.0056 17.6752 23.3661 18.6689 23.6524 19.614C22.7246 19.8371 21.7229 20.0168 20.6674 20.1502C21.0056 19.5852 21.3331 19.0132 21.6497 18.4345C21.9717 17.8463 22.2811 17.2505 22.5779 16.6478ZM20.4656 17.7148C19.9809 18.6021 19.4689 19.4725 18.9305 20.3247C17.9552 20.3975 16.9777 20.4337 16 20.4331C15.0041 20.4331 14.0355 20.4004 13.1027 20.3367C12.5503 19.4865 12.0285 18.6145 11.5386 17.7227C11.051 16.8357 10.5957 15.9294 10.1734 15.0058C10.5946 14.0821 11.0487 13.1754 11.5346 12.2877L11.5345 12.2878C12.0202 11.3998 12.5378 10.5316 13.0861 9.68501C14.0378 9.60915 15.0136 9.56963 15.9999 9.56963C16.9906 9.56963 17.9679 9.60954 18.9193 9.68594C19.462 10.5312 19.9763 11.3965 20.4611 12.28C20.9486 13.1659 21.4087 14.0681 21.8406 14.9854C21.4131 15.9121 20.9545 16.8225 20.4656 17.7148ZM23.2856 1.62941C24.3571 2.2806 24.7739 4.90657 24.1006 8.35023C24.0575 8.5701 24.0095 8.79358 23.9569 9.02065C22.6291 8.69769 21.1875 8.45757 19.6781 8.30834C18.7989 6.98897 17.8878 5.78945 16.9731 4.75102C17.2128 4.50756 17.4582 4.2704 17.7091 4.03977C20.0716 1.87347 22.2796 1.01812 23.2856 1.62941ZM16 11.9606C17.5781 11.9606 18.8575 13.3087 18.8575 14.9716C18.8575 16.6345 17.5781 17.9826 16 17.9826C14.4219 17.9826 13.1425 16.6345 13.1425 14.9716C13.1425 13.3087 14.4219 11.9606 16 11.9606Z" fill="#00D8FF"/>
</svg>
