<svg width="48" height="28" viewBox="0 0 48 28" fill="none" xmlns="http://www.w3.org/2000/svg">
<path d="M24 0.28894C17.6 0.28894 13.6 3.28208 12 9.26837C14.4 6.27523 17.2 5.1528 20.4 5.90108C22.2257 6.32796 23.5307 7.56701 24.9752 8.9383C27.3283 11.1725 30.0516 13.7581 36 13.7581C42.4 13.7581 46.4 10.7649 48 4.77865C45.6 7.7718 42.8 8.89423 39.6 8.14594C37.7743 7.71907 36.4693 6.48001 35.0248 5.10872C32.6717 2.87456 29.9484 0.28894 24 0.28894ZM12 13.7581C5.6 13.7581 1.6 16.7512 0 22.7375C2.4 19.7444 5.2 18.6219 8.4 19.3702C10.2257 19.7971 11.5307 21.0362 12.9752 22.4074C15.3283 24.6416 18.0516 27.2272 24 27.2272C30.4 27.2272 34.4 24.2341 36 18.2478C33.6 21.2409 30.8 22.3634 27.6 21.6151C25.7743 21.1882 24.4693 19.9492 23.0248 18.5779C20.6717 16.3437 17.9484 13.7581 12 13.7581Z" fill="url(#paint0_linear_229_267)"/>
<defs>
<linearGradient id="paint0_linear_229_267" x1="-133.344" y1="862.314" x2="3869.43" y2="3329.74" gradientUnits="userSpaceOnUse">
<stop stop-color="#2298BD"/>
<stop offset="1" stop-color="#0ED7B5"/>
</linearGradient>
</defs>
</svg>
