<svg width="32" height="32" viewBox="0 0 32 32" fill="none" xmlns="http://www.w3.org/2000/svg">
<path d="M0.375 15.3525V31.3525H32.375V-0.647522H0.375V15.3525ZM26.1619 14.0725C26.9283 14.2503 27.6249 14.6512 28.1638 15.2245C28.4604 15.5334 28.7183 15.8772 28.9318 16.2485C28.9318 16.2894 27.5494 17.2238 26.7072 17.7461C26.6764 17.7666 26.5536 17.6334 26.4179 17.4312C26.2641 17.1659 26.0457 16.9439 25.7829 16.7858C25.5201 16.6278 25.2216 16.5389 24.9152 16.5275C23.9449 16.461 23.3203 16.9704 23.3254 17.8075C23.3176 18.0159 23.3653 18.2226 23.4636 18.4066C23.6761 18.8494 24.0729 19.1131 25.3171 19.6507C27.6083 20.6363 28.5888 21.2866 29.198 22.2107C29.879 23.2347 30.03 24.8885 29.5692 26.1122C29.0572 27.4434 27.8028 28.347 26.0288 28.6466C25.2185 28.7394 24.3998 28.7308 23.5916 28.621C22.353 28.4168 21.2121 27.8221 20.3353 26.9237C20.0409 26.5986 19.4675 25.7512 19.5033 25.6898C19.5966 25.6201 19.695 25.5576 19.7977 25.5029L20.983 24.8475L21.902 24.315L22.094 24.5992C22.4182 25.0626 22.8305 25.4576 23.3075 25.7614C24.3315 26.299 25.7292 26.2248 26.4204 25.6027C26.6525 25.3748 26.7973 25.0726 26.8296 24.7489C26.8618 24.4253 26.7796 24.1005 26.5971 23.8312C26.3411 23.4754 25.8291 23.1758 24.398 22.5512C22.7468 21.8395 22.0352 21.3992 21.3849 20.6978C20.9791 20.2348 20.6794 19.6887 20.5068 19.0978C20.3782 18.4225 20.3592 17.731 20.4505 17.0498C20.791 15.4549 21.9865 14.3413 23.7324 14.011C24.541 13.9111 25.36 13.9336 26.1619 14.0776V14.0725ZM18.6508 15.4139V16.7246H14.496V28.5595H11.5494V16.7221H7.38428V15.4421C7.37122 15.0007 7.38147 14.5589 7.415 14.1186C7.43548 14.0955 9.975 14.0955 13.047 14.0955H18.6355L18.6508 15.4139Z" fill="#007ACC"/>
</svg>
